<svg width="249" height="127" viewBox="0 0 249 127" fill="none" xmlns="http://www.w3.org/2000/svg">
<path d="M127.028 60.0157C140.017 56.6973 151.631 52.9048 161.871 48.6383C172.111 44.3718 181.213 39.8208 189.177 34.9855C194.012 32.0463 198.99 28.5383 204.11 24.4614C209.229 20.3845 214.065 16.2128 218.616 11.9463C223.167 7.58492 226.912 3.60284 229.851 0L248.481 17.7772C244.025 22.1385 239.048 26.5946 233.549 31.1456C228.144 35.6017 222.503 39.8683 216.625 43.9452C210.841 48.022 205.153 51.7197 199.559 55.0381C194.06 58.1669 187.944 61.3905 181.213 64.7089C174.481 68.0273 167.37 71.1561 159.88 74.0952C152.485 77.0344 145.089 79.5943 137.694 81.775L127.028 60.0157ZM185.764 46.0784L210.509 40.6742V104.245C210.509 106.521 210.557 109.033 210.652 111.783C210.746 114.438 210.889 116.95 211.078 119.32C211.268 121.691 211.552 123.539 211.932 124.867H184.626C184.815 123.539 185.005 121.691 185.195 119.32C185.384 116.95 185.527 114.438 185.621 111.783C185.716 109.033 185.764 106.521 185.764 104.245V46.0784Z" fill="white"/>
<path d="M122.591 21.1902C121.738 22.2331 120.648 23.6553 119.32 25.4567C117.993 27.1633 116.95 28.5855 116.192 29.7232C113.821 33.7053 110.787 38.1614 107.09 43.0917C103.487 47.927 99.5521 52.6202 95.2856 57.1712C91.1139 61.7221 86.8948 65.562 82.6283 68.6908L64.8511 54.469C67.5058 52.7624 70.0657 50.9136 72.5308 48.9226C74.9959 46.8367 77.2714 44.7034 79.3573 42.5228C81.4431 40.3421 83.2445 38.2563 84.7615 36.2652C86.3733 34.2742 87.5585 32.5202 88.317 31.0032C87.1792 31.0032 85.2356 31.0032 82.486 31.0032C79.8313 31.0032 76.6077 31.0032 72.8153 31.0032C69.0228 31.0032 64.9459 31.0032 60.5846 31.0032C56.2232 31.0032 51.8619 31.0032 47.5006 31.0032C43.1393 31.0032 38.9675 31.0032 34.9855 31.0032C31.0982 31.0032 27.6376 31.0032 24.6036 31.0032C21.6644 31.0032 19.4838 31.0032 18.0616 31.0032C14.9328 31.0032 12.0411 31.098 9.38634 31.2876C6.82643 31.4772 3.69765 31.7617 0 32.1409V8.39062C2.93916 8.76987 5.87832 9.14912 8.81747 9.52836C11.8514 9.81279 14.9328 9.95501 18.0616 9.95501C19.4838 9.95501 21.7593 9.95501 24.888 9.95501C28.0168 9.95501 31.6671 9.95501 35.8388 9.95501C40.0105 9.95501 44.4192 9.95501 49.065 9.95501C53.8056 9.95501 58.4987 9.95501 63.1445 9.95501C67.7903 9.95501 72.1042 9.95501 76.0863 9.95501C80.0684 9.95501 83.4342 9.95501 86.1837 9.95501C89.028 9.95501 90.9243 9.95501 91.8724 9.95501C93.4842 9.95501 95.4278 9.90761 97.7033 9.8128C99.9788 9.71799 102.159 9.57577 104.245 9.38614C106.426 9.10171 107.99 8.81728 108.938 8.53284L122.591 21.1902ZM63.9978 40.5317C63.9978 47.1685 63.903 53.7105 63.7134 60.1577C63.5237 66.6049 62.8127 72.8625 61.5801 78.9304C60.4424 84.9984 58.4987 90.8767 55.7492 96.5654C52.9997 102.159 49.1124 107.516 44.0874 112.636C39.1572 117.756 32.6626 122.544 24.6036 127L4.55095 110.645C7.01605 109.792 9.57597 108.701 12.2307 107.374C14.9802 106.047 17.8246 104.245 20.7637 101.97C24.7458 98.9356 27.9694 95.8543 30.4345 92.7255C32.9944 89.5967 34.9381 86.2309 36.2654 82.6281C37.6876 78.9304 38.6831 74.8061 39.252 70.2552C39.8208 65.7042 40.1053 60.537 40.1053 54.7535C40.1053 52.2884 40.0105 49.9655 39.8208 47.7848C39.726 45.5093 39.4416 43.0917 38.9675 40.5317H63.9978Z" fill="white"/>
</svg>
